<svg xmlns="http://www.w3.org/2000/svg" width="268" height="217"><defs><clipPath id="c"><path fill="none" d="M0 0h160v171H0z"/></clipPath><filter id="a" x="0" y="0" width="268" height="217" filterUnits="userSpaceOnUse"><feOffset dy="1"/><feGaussianBlur stdDeviation="3" result="b"/><feFlood flood-opacity=".161"/><feComposite operator="in" in2="b"/><feComposite in="SourceGraphic"/></filter></defs><g filter="url(#a)"><path fill="#fff" d="M9 8h250v199H9z"/></g><g transform="translate(56 36)" clip-path="url(#c)"><path fill="#c1c1c1" d="M0 0h51v48H0z"/><path fill="none" stroke="#e2e2e2" stroke-width="10" d="M73 18h87"/><path fill="none" stroke="#e2e2e2" stroke-width="5" opacity=".74" d="M73 31h59"/><path fill="none" stroke="#e2e2e2" stroke-width="3" opacity=".5" d="M73 40h37"/><path fill="#c1c1c1" d="M0 68h51v48H0z"/><path fill="none" stroke="#e2e2e2" stroke-width="10" d="M73 86h87"/><path fill="none" stroke="#e2e2e2" stroke-width="5" opacity=".74" d="M73 99h59"/><path fill="none" stroke="#e2e2e2" stroke-width="3" opacity=".5" d="M73 108h37"/><path fill="#c1c1c1" d="M0 136h51v48H0z"/><path fill="none" stroke="#e2e2e2" stroke-width="10" d="M73 154h87"/><path fill="none" stroke="#e2e2e2" stroke-width="5" opacity=".74" d="M73 167h59"/><path fill="none" stroke="#e2e2e2" stroke-width="3" opacity=".5" d="M73 176h37"/></g></svg>