<svg xmlns="http://www.w3.org/2000/svg" width="250" height="134"><defs><clipPath id="b"><path d="M0 0h250v134H0z"/></clipPath></defs><g id="a" clip-path="url(#b)"><path fill="#fff" d="M0 0h250v134H0z"/><path transform="translate(15 15)" fill="#c1c1c1" d="M0 0h110v104H0z"/><path transform="translate(189 15)" fill="#c1c1c1" d="M0 0h47v46H0z"/><path transform="translate(189 75)" fill="#c1c1c1" d="M0 0h47v44H0z"/><path fill="none" stroke="#fff" stroke-width="10" d="M24.5 94.5h66.817"/><path fill="none" stroke="#fff" stroke-width="7" d="M24.5 107.5h36"/><path fill="none" stroke="#fff" stroke-width="5" d="M195.197 104.093h35.63"/><path fill="none" stroke="#fff" stroke-width="3" d="M195.197 110.833h20.685"/><path fill="none" stroke="#fff" stroke-width="5" d="M195.197 47.093h35.63"/><path fill="none" stroke="#fff" stroke-width="3" d="M195.197 53.833h20.685"/><path transform="translate(136 15)" fill="#c1c1c1" d="M0 0h46v46H0z"/><path transform="translate(136 75)" fill="#c1c1c1" d="M0 0h46v44H0z"/><path fill="none" stroke="#fff" stroke-width="5" d="M141.57 104.093h35.63"/><path fill="none" stroke="#fff" stroke-width="3" d="M141.57 110.833h20.685"/><path fill="none" stroke="#fff" stroke-width="5" d="M141.57 47.093h35.63"/><path fill="none" stroke="#fff" stroke-width="3" d="M141.57 53.833h20.685"/></g></svg>