<svg xmlns="http://www.w3.org/2000/svg" width="250" height="134"><defs><clipPath id="b"><path d="M0 0h250v134H0z"/></clipPath></defs><g id="a" clip-path="url(#b)"><path fill="#fff" d="M0 0h250v134H0z"/><path transform="translate(15 15)" fill="#c1c1c1" d="M0 0h114v104H0z"/><path fill="none" stroke="#fff" stroke-width="10" d="M24.5 94.5h66.817"/><path fill="none" stroke="#fff" stroke-width="7" d="M24.5 107.5h36"/><rect width="30" height="30" rx="15" transform="translate(139 15)" fill="#c1c1c1"/><path fill="none" stroke="#e2e2e2" stroke-width="6" d="M179 25h54"/><path fill="none" stroke="#e2e2e2" stroke-width="4" d="M179 35h36"/><rect width="30" height="30" rx="15" transform="translate(139 52)" fill="#c1c1c1"/><path fill="none" stroke="#e2e2e2" stroke-width="6" d="M179 62h54"/><path fill="none" stroke="#e2e2e2" stroke-width="4" d="M179 72h36"/><rect width="30" height="30" rx="15" transform="translate(139 15)" fill="#c1c1c1"/><path fill="none" stroke="#e2e2e2" stroke-width="6" d="M179 25h54"/><path fill="none" stroke="#e2e2e2" stroke-width="4" d="M179 35h36"/><rect width="30" height="30" rx="15" transform="translate(139 89)" fill="#c1c1c1"/><path fill="none" stroke="#e2e2e2" stroke-width="6" d="M179 99h54"/><path fill="none" stroke="#e2e2e2" stroke-width="4" d="M179 109h36"/></g></svg>