<svg xmlns="http://www.w3.org/2000/svg" width="618" height="285"><defs><filter id="a" x="0" y="0" width="618" height="285" filterUnits="userSpaceOnUse"><feOffset dy="1"/><feGaussianBlur stdDeviation="3" result="b"/><feFlood flood-opacity=".161"/><feComposite operator="in" in2="b"/><feComposite in="SourceGraphic"/></filter></defs><g filter="url(#a)"><path fill="#fff" d="M9 8h600v267H9z"/></g><path d="M187.823 142.25a42.25 42.25 0 10-48.852 41.739v-29.526h-10.732V142.25h10.732v-9.309c0-10.588 6.3-16.437 15.958-16.437a65.022 65.022 0 019.459.825v10.392h-5.329c-5.247 0-6.884 3.257-6.884 6.6v7.93h11.717l-1.869 12.212h-9.848v29.526a42.265 42.265 0 0035.648-41.739zm154.616-18.247c.053.746.053 1.492.053 2.239 0 22.759-17.322 48.982-48.982 48.982a48.65 48.65 0 01-26.437-7.729 35.615 35.615 0 004.157.213 34.478 34.478 0 0021.373-7.355 17.246 17.246 0 01-16.096-11.935 21.711 21.711 0 003.251.266 18.208 18.208 0 004.53-.586 17.218 17.218 0 01-13.8-16.9v-.213a17.338 17.338 0 007.782 2.185 17.241 17.241 0 01-5.33-23.025 48.935 48.935 0 0035.5 18.015 19.435 19.435 0 01-.426-3.944 17.232 17.232 0 0129.787-11.779 33.9 33.9 0 0010.926-4.157 17.169 17.169 0 01-7.569 9.487 34.513 34.513 0 009.915-2.665 37.007 37.007 0 01-8.634 8.901zm129.884 7.265a10.085 10.085 0 1010.089 10.086 10.085 10.085 0 00-10.089-10.086zm23.58-7.752a10.21 10.21 0 00-5.75-5.75c-3.971-1.566-13.425-1.216-17.83-1.216s-13.85-.365-17.832 1.216a10.21 10.21 0 00-5.75 5.75c-1.566 3.971-1.216 13.434-1.216 17.836s-.35 13.854 1.223 17.837a10.21 10.21 0 005.75 5.75c3.971 1.567 13.424 1.216 17.832 1.216s13.848.365 17.83-1.216a10.21 10.21 0 005.75-5.75c1.579-3.971 1.216-13.434 1.216-17.836s.363-13.853-1.216-17.836zm-23.58 33.341a15.485 15.485 0 1110.969-4.536 15.5 15.5 0 01-10.969 4.536zm16.147-28.04a1.5 1.5 0 11.008.008zM505.6 99h-66.554a9.076 9.076 0 00-9.076 9.076v66.554a9.076 9.076 0 009.076 9.076H505.6a9.076 9.076 0 009.076-9.076v-66.554A9.076 9.076 0 00505.6 99zm-3.237 54.832c-.244 4.846-1.35 9.14-4.888 12.668s-7.828 4.657-12.668 4.888c-4.993.282-19.965.282-24.958 0-4.846-.244-9.125-1.352-12.668-4.888s-4.657-7.832-4.888-12.668c-.282-5-.282-19.968 0-24.958.244-4.846 1.337-9.14 4.888-12.668s7.841-4.644 12.668-4.874c4.993-.282 19.965-.282 24.958 0 4.846.244 9.138 1.352 12.668 4.888s4.657 7.832 4.888 12.678c.282 4.975.282 19.935 0 24.934z" fill="#c1c1c1"/></svg>